<svg width="64" height="88" viewBox="0 0 64 88" fill="none" xmlns="http://www.w3.org/2000/svg">
<rect width="64" height="64" rx="16" fill="#006D2F" fill-opacity="0.1"/>
<path d="M37 44.5C35.2708 44.5 33.7969 43.8906 32.5781 42.6719C31.3594 41.4531 30.75 39.9792 30.75 38.25C30.75 36.5208 31.3594 35.0469 32.5781 33.8281C33.7969 32.6094 35.2708 32 37 32C38.7292 32 40.2031 32.6094 41.4219 33.8281C42.6406 35.0469 43.25 36.5208 43.25 38.25C43.25 39.9792 42.6406 41.4531 41.4219 42.6719C40.2031 43.8906 38.7292 44.5 37 44.5V44.5M30.75 44.5C27.8542 43.7708 25.4635 42.1094 23.5781 39.5156C21.6927 36.9219 20.75 34.0417 20.75 30.875V23.25L30.75 19.5L40.75 23.25V30.3438C40.2083 30.0729 39.599 29.8646 38.9219 29.7188C38.2448 29.5729 37.6042 29.5 37 29.5C34.5833 29.5 32.5208 30.3542 30.8125 32.0625C29.1042 33.7708 28.25 35.8333 28.25 38.25C28.25 39.5417 28.4948 40.7083 28.9844 41.75C29.474 42.7917 30.0938 43.6979 30.8438 44.4688C30.8229 44.4688 30.8073 44.474 30.7969 44.4844C30.7865 44.4948 30.7708 44.5 30.75 44.5V44.5M37 38.25C37.5208 38.25 37.9635 38.0677 38.3281 37.7031C38.6927 37.3385 38.875 36.8958 38.875 36.375C38.875 35.8542 38.6927 35.4115 38.3281 35.0469C37.9635 34.6823 37.5208 34.5 37 34.5C36.4792 34.5 36.0365 34.6823 35.6719 35.0469C35.3073 35.4115 35.125 35.8542 35.125 36.375C35.125 36.8958 35.3073 37.3385 35.6719 37.7031C36.0365 38.0677 36.4792 38.25 37 38.25V38.25M37 42C37.6458 42 38.2396 41.849 38.7812 41.5469C39.3229 41.2448 39.7604 40.8438 40.0938 40.3438C39.6354 40.0729 39.1458 39.8646 38.625 39.7188C38.1042 39.5729 37.5625 39.5 37 39.5C36.4375 39.5 35.8958 39.5729 35.375 39.7188C34.8542 39.8646 34.3646 40.0729 33.9062 40.3438C34.2396 40.8438 34.6771 41.2448 35.2188 41.5469C35.7604 41.849 36.3542 42 37 42V42" fill="#006D2F"/>
</svg>
