<svg width="34" height="43" viewBox="0 0 34 43" fill="none" xmlns="http://www.w3.org/2000/svg">
<rect width="34" height="43" rx="8" fill="#832600" fill-opacity="0.1"/>
<path d="M14 10V8H20V10H14ZM16 21H18V15H16V21ZM17 29C15.7667 29 14.6042 28.7625 13.5125 28.2875C12.4208 27.8125 11.4667 27.1667 10.65 26.35C9.83333 25.5333 9.1875 24.5792 8.7125 23.4875C8.2375 22.3958 8 21.2333 8 20C8 18.7667 8.2375 17.6042 8.7125 16.5125C9.1875 15.4208 9.83333 14.4667 10.65 13.65C11.4667 12.8333 12.4208 12.1875 13.5125 11.7125C14.6042 11.2375 15.7667 11 17 11C18.0333 11 19.025 11.1667 19.975 11.5C20.925 11.8333 21.8167 12.3167 22.65 12.95L24.05 11.55L25.45 12.95L24.05 14.35C24.6833 15.1833 25.1667 16.075 25.5 17.025C25.8333 17.975 26 18.9667 26 20C26 21.2333 25.7625 22.3958 25.2875 23.4875C24.8125 24.5792 24.1667 25.5333 23.35 26.35C22.5333 27.1667 21.5792 27.8125 20.4875 28.2875C19.3958 28.7625 18.2333 29 17 29Z" fill="#832600"/>
</svg>
