<svg width="64" height="88" viewBox="0 0 64 88" fill="none" xmlns="http://www.w3.org/2000/svg">
<rect width="64" height="64" rx="16" fill="#FFB701" fill-opacity="0.1"/>
<path d="M26.375 44.5V33.0625C25.3125 32.7708 24.4219 32.1875 23.7031 31.3125C22.9844 30.4375 22.625 29.4167 22.625 28.25V19.5H25.125V28.25H26.375V19.5H28.875V28.25H30.125V19.5H32.625V28.25C32.625 29.4167 32.2656 30.4375 31.5469 31.3125C30.8281 32.1875 29.9375 32.7708 28.875 33.0625V44.5H26.375V44.5M38.875 44.5V34.5H35.125V25.75C35.125 24.0208 35.7344 22.5469 36.9531 21.3281C38.1719 20.1094 39.6458 19.5 41.375 19.5V44.5H38.875V44.5" fill="#FFB701"/>
</svg>
