<svg width="40" height="40" viewBox="0 0 40 40" fill="none" xmlns="http://www.w3.org/2000/svg">
<rect width="40" height="40" rx="8" fill="#832600"/>
<path d="M15.5 30V20.85C14.65 20.6167 13.9375 20.15 13.3625 19.45C12.7875 18.75 12.5 17.9333 12.5 17V10H14.5V17H15.5V10H17.5V17H18.5V10H20.5V17C20.5 17.9333 20.2125 18.75 19.6375 19.45C19.0625 20.15 18.35 20.6167 17.5 20.85V30H15.5ZM25.5 30V22H22.5V15C22.5 13.6167 22.9875 12.4375 23.9625 11.4625C24.9375 10.4875 26.1167 10 27.5 10V30H25.5Z" fill="white"/>
</svg>
