<svg width="36" height="42" viewBox="0 0 36 42" fill="none" xmlns="http://www.w3.org/2000/svg">
<rect width="36" height="42" rx="8" fill="#7D5800" fill-opacity="0.1"/>
<path d="M13 19.5C13.4167 19.5 13.7708 19.3542 14.0625 19.0625C14.3542 18.7708 14.5 18.4167 14.5 18C14.5 17.5833 14.3542 17.2292 14.0625 16.9375C13.7708 16.6458 13.4167 16.5 13 16.5C12.5833 16.5 12.2292 16.6458 11.9375 16.9375C11.6458 17.2292 11.5 17.5833 11.5 18C11.5 18.4167 11.6458 18.7708 11.9375 19.0625C12.2292 19.3542 12.5833 19.5 13 19.5ZM18 19.5C18.4167 19.5 18.7708 19.3542 19.0625 19.0625C19.3542 18.7708 19.5 18.4167 19.5 18C19.5 17.5833 19.3542 17.2292 19.0625 16.9375C18.7708 16.6458 18.4167 16.5 18 16.5C17.5833 16.5 17.2292 16.6458 16.9375 16.9375C16.6458 17.2292 16.5 17.5833 16.5 18C16.5 18.4167 16.6458 18.7708 16.9375 19.0625C17.2292 19.3542 17.5833 19.5 18 19.5ZM23 19.5C23.4167 19.5 23.7708 19.3542 24.0625 19.0625C24.3542 18.7708 24.5 18.4167 24.5 18C24.5 17.5833 24.3542 17.2292 24.0625 16.9375C23.7708 16.6458 23.4167 16.5 23 16.5C22.5833 16.5 22.2292 16.6458 21.9375 16.9375C21.6458 17.2292 21.5 17.5833 21.5 18C21.5 18.4167 21.6458 18.7708 21.9375 19.0625C22.2292 19.3542 22.5833 19.5 23 19.5ZM18 28C16.6167 28 15.3167 27.7375 14.1 27.2125C12.8833 26.6875 11.825 25.975 10.925 25.075C10.025 24.175 9.3125 23.1167 8.7875 21.9C8.2625 20.6833 8 19.3833 8 18C8 16.6167 8.2625 15.3167 8.7875 14.1C9.3125 12.8833 10.025 11.825 10.925 10.925C11.825 10.025 12.8833 9.3125 14.1 8.7875C15.3167 8.2625 16.6167 8 18 8C19.3833 8 20.6833 8.2625 21.9 8.7875C23.1167 9.3125 24.175 10.025 25.075 10.925C25.975 11.825 26.6875 12.8833 27.2125 14.1C27.7375 15.3167 28 16.6167 28 18C28 19.3833 27.7375 20.6833 27.2125 21.9C26.6875 23.1167 25.975 24.175 25.075 25.075C24.175 25.975 23.1167 26.6875 21.9 27.2125C20.6833 27.7375 19.3833 28 18 28Z" fill="#7D5800"/>
</svg>
